HIERARCHY
ROOT SpineBase
{
  OFFSET 0.000000 0.000000 0.000000
  CHANNELS 6 Xposition Yposition Zposition Zrotation Xrotation Yrotation
  JOINT SpineMid
  {
    OFFSET 0.000000 33.886751 0.000000
    CHANNELS 3 Zrotation Xrotation Yrotation
    JOINT SpineShoulder
    {
      OFFSET 0.133347 25.134228 -0.769445
      CHANNELS 3 Zrotation Xrotation Yrotation
      JOINT Neck
      {
        OFFSET 0.030698 8.252359 -0.595233
        CHANNELS 3 Zrotation Xrotation Yrotation
        JOINT Head
        {
          OFFSET -4.032445 10.851977 3.676158
          CHANNELS 3 Zrotation Xrotation Yrotation
          End Site
          {
            OFFSET 0 0 0
          }
        }
      }
      JOINT ShoulderLeft
      {
        OFFSET 2.525162 -10.522980 24.678189
        CHANNELS 3 Zrotation Xrotation Yrotation
        JOINT ElbowLeft
        {
          OFFSET -7.233884 -7.680717 -27.958300
          CHANNELS 3 Zrotation Xrotation Yrotation
          JOINT WristLeft
          {
            OFFSET -3.517227 -3.732798 -25.008729
            CHANNELS 3 Zrotation Xrotation Yrotation
            JOINT HandLeft
            {
              OFFSET -2.410042 -2.976476 -1.060984
              CHANNELS 3 Zrotation Xrotation Yrotation
              JOINT HandTipLeft
              {
                OFFSET -2.792198 -4.660705 -2.269146
                CHANNELS 3 Zrotation Xrotation Yrotation
                End Site
                {
                  OFFSET 0 0 0
                }
              }
              JOINT ThumbLeft
              {
                OFFSET -2.605357 4.825795 -3.000612
                CHANNELS 3 Zrotation Xrotation Yrotation
                End Site
                {
                  OFFSET 0 0 0
                }
              }
            }
          }
        }
      }
      JOINT ShoulderRight
      {
        OFFSET 6.177997 -6.606200 -11.089203
        CHANNELS 3 Zrotation Xrotation Yrotation
        JOINT ElbowRight
        {
          OFFSET -10.070023 -16.582039 -12.724893
          CHANNELS 3 Zrotation Xrotation Yrotation
          JOINT WristRight
          {
            OFFSET -11.394622 17.494794 -4.107663
            CHANNELS 3 Zrotation Xrotation Yrotation
            JOINT HandRight
            {
              OFFSET 2.876348 6.770529 3.008979
              CHANNELS 3 Zrotation Xrotation Yrotation
              JOINT HandTipRight
              {
                OFFSET 0.840091 6.425514 2.808236
                CHANNELS 3 Zrotation Xrotation Yrotation
                End Site
                {
                  OFFSET 0 0 0
                }
              }
              JOINT ThumbRight
              {
                OFFSET -2.992277 0.443138 -3.135828
                CHANNELS 3 Zrotation Xrotation Yrotation
                End Site
                {
                  OFFSET 0 0 0
                }
              }
            }
          }
        }
      }
    }
  }
  JOINT HipLeft
  {
    OFFSET -0.264713 0.758046 1.895898
    CHANNELS 3 Zrotation Xrotation Yrotation
    JOINT KneeLeft
    {
      OFFSET 13.215272 -41.698961 13.961095
      CHANNELS 3 Zrotation Xrotation Yrotation
      JOINT AnkleLeft
      {
        OFFSET 3.403005 -42.535361 1.660471
        CHANNELS 3 Zrotation Xrotation Yrotation
        JOINT FootLeft
        {
          OFFSET -1.123895 -1.049608 -13.291036
          CHANNELS 3 Zrotation Xrotation Yrotation
          End Site
          {
            OFFSET 0 0 0
          }
        }
      }
    }
  }
  JOINT HipRight
  {
    OFFSET 0.761512 0.492996 -9.525408
    CHANNELS 3 Zrotation Xrotation Yrotation
    JOINT KneeRight
    {
      OFFSET 4.125292 -45.846097 1.355612
      CHANNELS 3 Zrotation Xrotation Yrotation
      JOINT AnkleRight
      {
        OFFSET 4.983013 -35.170273 6.980664
        CHANNELS 3 Zrotation Xrotation Yrotation
        JOINT FootRight
        {
          OFFSET -2.837119 -6.383512 -2.709310
          CHANNELS 3 Zrotation Xrotation Yrotation
          End Site
          {
            OFFSET 0 0 0
          }
        }
      }
    }
  }
}
MOTION
Frames: 10
Frame Time: 0.033333
-18.138683 91.645976 316.960055 5.762305 5.605101 13.088945 1.392084 1.378357 -13.251064 0.072471 0.461519 0.275939 -15.634067 -2.332648 3.257156 0.000000 0.000000 0.000000 -15.702376 -2.211909 20.082611 -7.759881 39.761417 24.797485 -27.082088 50.690534 -53.628023 9.142648 37.872421 21.867158 0.000000 0.000000 0.000000 0.000000 0.000000 0.000000 -6.247419 -23.579685 9.380754 26.805615 16.401331 -8.792800 12.847277 -35.182421 -1.674571 -12.467587 -23.140432 12.973158 0.000000 0.000000 0.000000 0.000000 0.000000 0.000000 -8.606797 -5.389700 -14.731600 -3.293214 3.404447 1.122460 5.708348 -12.738851 9.403255 0.000000 0.000000 0.000000 -11.560234 4.138594 -13.183621 8.018495 -4.843295 0.727491 -17.267197 9.703887 1.753839 0.000000 0.000000 0.000000
-17.624984 91.546418 317.218787 6.448388 6.827495 -27.928507 0.097731 1.943357 27.688937 0.006808 0.488289 0.291573 -17.896206 -2.003014 4.034784 0.000000 0.000000 0.000000 -16.774187 -4.809021 22.632028 -12.082251 36.814346 36.730927 -22.944628 46.891898 -58.571909 -9.659379 36.607186 25.617205 0.000000 0.000000 0.000000 0.000000 0.000000 0.000000 15.792605 -36.886777 11.754595 16.307641 31.796914 -7.108209 29.405741 -36.371097 -8.955090 -15.886720 -19.769218 21.090006 0.000000 0.000000 0.000000 0.000000 0.000000 0.000000 -2.616237 -11.086564 26.427476 -5.414394 3.220492 1.040986 7.834059 -14.566667 8.183421 0.000000 0.000000 0.000000 -11.010787 -5.315782 26.753483 5.397378 -3.090661 0.351963 -19.466467 11.588762 2.187356 0.000000 0.000000 0.000000
-17.133983 91.322400 317.447058 6.917049 7.949435 -43.886494 -0.436808 1.696423 43.565846 -0.090728 0.470248 0.292040 -19.286340 -1.466940 4.737952 0.000000 0.000000 0.000000 -17.302046 -7.227755 24.981581 -12.618648 25.984389 46.267947 -17.303296 43.542275 -61.783463 -30.196707 30.080892 29.678546 0.000000 0.000000 0.000000 0.000000 0.000000 0.000000 37.024186 -44.389387 16.144236 0.728547 43.549148 1.607824 38.865386 -38.375915 -13.626061 -16.217719 -5.206769 9.668290 0.000000 0.000000 0.000000 0.000000 0.000000 0.000000 -1.077312 -11.600527 42.605129 -5.828059 0.681212 0.356508 9.854595 -19.362280 5.777632 0.000000 0.000000 0.000000 -5.137281 -8.704233 42.887650 -2.323727 3.456564 -0.138091 -17.849209 9.658228 1.956929 0.000000 0.000000 0.000000
-16.589957 91.092814 317.823812 7.330667 9.040912 -49.185614 -0.500056 1.352016 48.774608 -0.162931 0.445604 0.292134 -19.471856 -0.234849 5.449074 0.000000 0.000000 0.000000 -17.365106 -9.790312 26.807106 -11.490176 15.408121 54.680932 -12.827637 44.417628 -64.301192 -40.764572 10.781797 27.918329 0.000000 0.000000 0.000000 0.000000 0.000000 0.000000 51.544803 -47.473811 19.297009 -9.905844 49.095607 10.140470 40.842336 -40.225296 -16.770072 -17.902589 11.928533 -6.794664 0.000000 0.000000 0.000000 0.000000 0.000000 0.000000 -3.990331 -11.687535 47.566563 -4.101323 -4.373603 -0.765881 10.532634 -25.940196 -0.323638 0.000000 0.000000 0.000000 -0.519597 -9.359587 48.639410 -9.281017 9.254738 0.109329 -15.470337 7.117672 1.639049 0.000000 0.000000 0.000000
-16.135730 90.836101 318.287415 7.556566 9.938813 -47.199995 -0.306725 1.016426 46.719126 -0.241309 0.381983 0.286211 -18.845614 0.920191 5.925004 0.000000 0.000000 0.000000 -17.039130 -11.857865 28.088950 -8.030653 4.187353 59.833106 -14.074700 44.144464 -60.763651 -41.550692 -11.830671 22.362562 0.000000 0.000000 0.000000 0.000000 0.000000 0.000000 57.575910 -47.880032 18.605997 -19.633449 52.358774 19.529379 44.059587 -43.326851 -16.264980 -20.861605 24.605974 -17.490801 0.000000 0.000000 0.000000 0.000000 0.000000 0.000000 -10.640083 -10.696931 44.872942 -0.410868 -11.575205 -1.928364 8.526238 -35.048422 -10.529590 0.000000 0.000000 0.000000 2.788782 -9.652438 47.085912 -15.293459 14.362228 0.956366 -19.171105 5.211662 2.970542 0.000000 0.000000 0.000000
-15.804958 90.717849 318.836275 7.656622 10.614127 -35.126378 0.012516 0.662367 34.599781 -0.292365 0.326835 0.279458 -17.754102 1.522336 6.001457 0.000000 0.000000 0.000000 -16.536630 -13.496550 29.047970 -3.482534 -6.411021 62.104549 -0.779157 46.321005 -68.050008 -41.200739 -40.200526 11.117304 0.000000 0.000000 0.000000 0.000000 0.000000 0.000000 56.733399 -46.715937 14.557804 -21.195346 52.776007 23.919656 45.538461 -45.522002 -16.935824 -26.170467 31.983514 -21.087224 0.000000 0.000000 0.000000 0.000000 0.000000 0.000000 -20.065579 -5.172250 32.693162 5.048647 -20.392819 -2.442648 0.722556 -44.173771 -28.525655 0.000000 0.000000 0.000000 3.514830 -10.896456 35.262430 -19.780794 17.910715 1.924764 -19.016294 3.617210 3.086763 0.000000 0.000000 0.000000
-15.599129 90.616980 319.354413 7.633323 11.081198 -31.324751 0.079221 0.366559 30.769199 -0.298346 0.352368 0.270215 -16.479029 2.426515 6.181035 0.000000 0.000000 0.000000 -15.914349 -14.998214 29.744647 0.144249 -13.699098 63.126861 -3.798622 60.485598 -57.510243 -17.501113 -49.122134 0.716432 0.000000 0.000000 0.000000 0.000000 0.000000 0.000000 48.818298 -43.655676 8.616675 -5.864020 48.376693 17.057789 38.616654 -42.542655 -27.260150 -26.746267 30.579389 -20.137413 0.000000 0.000000 0.000000 0.000000 0.000000 0.000000 -27.142770 -0.745012 29.236264 11.671092 -28.371017 -1.381068 -15.607493 -46.731387 -60.195869 0.000000 0.000000 0.000000 3.522896 -11.046329 31.537615 -21.518908 18.474565 2.020956 -17.946519 2.928491 3.021994 0.000000 0.000000 0.000000
-15.594474 90.584574 319.827988 7.437732 11.356790 -31.329563 0.045915 0.371033 30.763725 -0.290968 0.360740 0.261942 -15.234881 2.062706 5.853172 0.000000 0.000000 0.000000 -14.960940 -16.102746 28.789528 1.633459 -15.898533 62.764173 -40.207581 64.376799 -16.114663 -3.274604 -41.049036 -5.944469 0.000000 0.000000 0.000000 0.000000 0.000000 0.000000 48.879513 -42.916970 6.720258 6.704152 45.597213 11.683976 27.189551 -38.978661 -37.149197 -21.382873 27.328331 -21.005307 0.000000 0.000000 0.000000 0.000000 0.000000 0.000000 -32.363416 1.720941 29.624611 16.793620 -34.081970 0.082515 -26.715812 -50.006012 -75.067680 0.000000 0.000000 0.000000 3.810452 -10.947574 31.597097 -22.039215 19.126159 2.179250 -20.223817 2.972362 3.199063 0.000000 0.000000 0.000000
-15.817338 90.664311 320.190398 7.097386 11.393024 -34.409240 -0.029274 0.522166 33.860289 -0.261349 0.369594 0.254702 -14.278839 1.844468 5.675765 0.000000 0.000000 0.000000 -15.059858 -15.806417 29.060009 0.074957 -12.811365 60.168330 -50.819848 74.358597 -4.842764 2.665876 -29.882986 -1.366270 0.000000 0.000000 0.000000 0.000000 0.000000 0.000000 48.173182 -42.223785 5.513200 27.774409 39.987526 2.282915 10.089244 -32.529951 -49.274232 -12.595061 29.276609 -29.174602 0.000000 0.000000 0.000000 0.000000 0.000000 0.000000 -35.445754 1.175051 32.312597 20.389169 -36.656206 1.582056 -30.978471 -53.068482 -77.332217 0.000000 0.000000 0.000000 2.023541 -9.855475 34.348223 -17.996937 15.921446 1.115223 -20.427664 3.243552 3.030872 0.000000 0.000000 0.000000
-15.927738 90.704644 320.671963 6.886167 11.350445 -37.700287 -0.037441 0.484170 37.171821 -0.262052 0.440093 0.241873 -13.906474 1.529426 5.538674 0.000000 0.000000 0.000000 -15.322150 -14.686504 28.689739 -2.194187 -7.966357 57.811425 -42.555225 59.804701 -20.022010 -10.971684 -3.192226 12.490249 0.000000 0.000000 0.000000 0.000000 0.000000 0.000000 47.836849 -41.666704 4.500195 53.985044 27.615675 -5.684471 -9.275001 -25.138730 -60.490615 -17.337142 52.899192 -59.712464 0.000000 0.000000 0.000000 0.000000 0.000000 0.000000 -35.708766 -0.287544 35.331883 16.058818 -35.194198 -0.813136 -26.474109 -63.086793 -65.700095 0.000000 0.000000 0.000000 0.291629 -9.096852 37.359140 -14.342903 13.110973 0.451004 -22.263596 4.512502 3.071663 0.000000 0.000000 0.000000
